<?xml version="1.0" encoding="UTF-8"?>
<svg id="Layer_2" data-name="Layer 2" xmlns="http://www.w3.org/2000/svg" viewBox="0 0 82.3 82.3">
  <defs>
    <style>
      .cls-1 {
        fill: #fff;
        fill-rule: evenodd;
        stroke-width: 0px;
      }
    </style>
  </defs>
  <g id="Layer_1-2" data-name="Layer 1">
    <path class="cls-1" d="m49.55,3.46l29.29,29.29c4.62,4.62,4.62,12.11,0,16.73l-29.35,29.36c-4.62,4.62-12.11,4.62-16.73,0L3.46,49.55c-4.62-4.62-4.62-12.11,0-16.73L32.82,3.46c4.62-4.62,12.11-4.62,16.73,0Zm-10.35,7.43l-.12.11-28.07,28.07c-1.12,1.12-1.15,2.9-.11,4.07l.11.12,28.03,28.03c1.12,1.12,2.9,1.15,4.06.11l.12-.11,28.07-28.07c1.15-1.15,1.15-3.02,0-4.18l-28.03-28.03c-1.12-1.12-2.9-1.15-4.06-.11Zm2.49,12.35l17.36,17.37c.29.29.29.75,0,1.05l-17.39,17.39c-.29.29-.76.29-1.05,0l-17.36-17.37c-.29-.29-.29-.75,0-1.05l17.39-17.39c.29-.29.76-.29,1.05,0Z"/>
  </g>
</svg>